#Comment line ignore any data following # character 
#Hierarchical Translation and Rotation (.htr) file 
[Header]	
#Header keywords are followed by a single value 
FileType HTR		#Single word string
DataType HTRS		#Translation followed by rotation and scale data
FileVersion 1		#integer
NumSegments 64		#integer
NumFrames 3		#integer
DataFrameRate 30		#integer, data frame rate in this file
EulerRotationOrder ZYX
CalibrationUnits mm
RotationUnits Degrees
GlobalAxisofGravity Y
BoneLengthAxis Y
ScaleFactor 1.00
[SegmentNames&Hierarchy]
#CHILD	PARENT
Pinger_Root GLOBAL
Pelvis Pinger_Root
L_Hip Pelvis
R_Hip Pelvis
Rear_Leg01 Pelvis
Spine1 Pelvis
L_Leg01 L_Hip
L_Leg02 L_Leg01
L_Leg03 L_Leg02
L_Foot L_Leg03
L_Toe1_01 L_Foot
L_Toe2_01 L_Foot
L_Toe3_01 L_Foot
planeAlignerLeft L_Foot
L_Toe1_02 L_Toe1_01
L_Toe1_03 L_Toe1_02
L_Toe2_02 L_Toe2_01
L_Toe2_03 L_Toe2_02
L_Toe3_02 L_Toe3_01
L_Toe3_03 L_Toe3_02
planeLockWeightLeft planeAlignerLeft
R_Leg01 R_Hip
R_Leg02 R_Leg01
R_Leg03 R_Leg02
R_Foot R_Leg03
planeAlignerRight R_Foot
R_Toe1_01 R_Foot
R_Toe2_01 R_Foot
R_Toe3_01 R_Foot
planeLockWeightRight planeAlignerRight
R_Toe1_02 R_Toe1_01
R_Toe1_03 R_Toe1_02
R_Toe2_02 R_Toe2_01
R_Toe2_03 R_Toe2_02
R_Toe3_02 R_Toe3_01
R_Toe3_03 R_Toe3_02
Rear_Leg02 Rear_Leg01
Rear_Leg03 Rear_Leg02
Rear_Leg04 Rear_Leg03
Rear_Foot Rear_Leg04
planeAlignerCenter Rear_Foot
Rear_Toe1_01 Rear_Foot
Rear_Toe2_01 Rear_Foot
Rear_Toe3_01 Rear_Foot
planeLockWeightCenter planeAlignerCenter
Rear_Toe1_02 Rear_Toe1_01
Rear_Toe1_03 Rear_Toe1_02
Rear_Toe2_02 Rear_Toe2_01
Rear_Toe2_03 Rear_Toe2_02
Rear_Toe3_02 Rear_Toe3_01
Rear_Toe3_03 Rear_Toe3_02
Back_Bone Spine1
Head Spine1
Motor_Bone Back_Bone
Ping_Mechanism Back_Bone
BN_LookIK Head
bottomMouth Head
L_Mouth01 Head
L_mouthFront Head
mouthGun Head
R_Mouth01 Head
R_mouthFront Head
TopMouth Head
weapon_bone Head
[BasePosition]
#SegmentName Tx, Ty, Tz, Rx, Ry, Rz, BoneLength
Pinger_Root 0.000000 0.000000 0.000000 -90.000000 0.000000 0.000000 10.000000 
Pelvis 0.000000 0.000000 0.000000 0.000000 0.000000 0.000000 10.000000 
L_Hip 0.000000 0.000000 0.000000 0.000000 0.000000 0.000000 10.000000 
R_Hip 0.000000 0.000000 0.000000 0.000000 0.000000 0.000000 10.000000 
Rear_Leg01 0.000000 0.000000 0.000000 0.000000 0.000000 0.000000 10.000000 
Spine1 0.000000 0.000000 0.000000 0.000000 0.000000 0.000000 10.000000 
L_Leg01 0.000000 0.000000 0.000000 0.000000 0.000000 0.000000 10.000000 
L_Leg02 0.000000 0.000000 0.000000 0.000000 0.000000 0.000000 10.000000 
L_Leg03 0.000000 0.000000 0.000000 0.000000 0.000000 0.000000 10.000000 
L_Foot 0.000000 0.000000 0.000000 0.000000 0.000000 0.000000 10.000000 
L_Toe1_01 0.000000 0.000000 0.000000 0.000000 0.000000 0.000000 10.000000 
L_Toe2_01 0.000000 0.000000 0.000000 0.000000 0.000000 0.000000 10.000000 
L_Toe3_01 0.000000 0.000000 0.000000 0.000000 0.000000 0.000000 10.000000 
planeAlignerLeft 0.000000 0.000000 0.000000 0.000000 0.000000 0.000000 10.000000 
L_Toe1_02 0.000000 0.000000 0.000000 0.000000 0.000000 0.000000 10.000000 
L_Toe1_03 0.000000 0.000000 0.000000 0.000000 0.000000 0.000000 10.000000 
L_Toe2_02 0.000000 0.000000 0.000000 0.000000 0.000000 0.000000 10.000000 
L_Toe2_03 0.000000 0.000000 0.000000 0.000000 0.000000 0.000000 10.000000 
L_Toe3_02 0.000000 0.000000 0.000000 0.000000 0.000000 0.000000 10.000000 
L_Toe3_03 0.000000 0.000000 0.000000 0.000000 0.000000 0.000000 10.000000 
planeLockWeightLeft 0.000000 0.000000 0.000000 0.000000 0.000000 0.000000 10.000000 
R_Leg01 0.000000 0.000000 0.000000 0.000000 0.000000 0.000000 10.000000 
R_Leg02 0.000000 0.000000 0.000000 0.000000 0.000000 0.000000 10.000000 
R_Leg03 0.000000 0.000000 0.000000 0.000000 0.000000 0.000000 10.000000 
R_Foot 0.000000 0.000000 0.000000 0.000000 0.000000 0.000000 10.000000 
planeAlignerRight 0.000000 0.000000 0.000000 0.000000 0.000000 0.000000 10.000000 
R_Toe1_01 0.000000 0.000000 0.000000 0.000000 0.000000 0.000000 10.000000 
R_Toe2_01 0.000000 0.000000 0.000000 0.000000 0.000000 0.000000 10.000000 
R_Toe3_01 0.000000 0.000000 0.000000 0.000000 0.000000 0.000000 10.000000 
planeLockWeightRight 0.000000 0.000000 0.000000 0.000000 0.000000 0.000000 10.000000 
R_Toe1_02 0.000000 0.000000 0.000000 0.000000 0.000000 0.000000 10.000000 
R_Toe1_03 0.000000 0.000000 0.000000 0.000000 0.000000 0.000000 10.000000 
R_Toe2_02 0.000000 0.000000 0.000000 0.000000 0.000000 0.000000 10.000000 
R_Toe2_03 0.000000 0.000000 0.000000 0.000000 0.000000 0.000000 10.000000 
R_Toe3_02 0.000000 0.000000 0.000000 0.000000 0.000000 0.000000 10.000000 
R_Toe3_03 0.000000 0.000000 0.000000 0.000000 0.000000 0.000000 10.000000 
Rear_Leg02 0.000000 0.000000 0.000000 0.000000 0.000000 0.000000 10.000000 
Rear_Leg03 0.000000 0.000000 0.000000 0.000000 0.000000 0.000000 10.000000 
Rear_Leg04 0.000000 0.000000 0.000000 0.000000 0.000000 0.000000 10.000000 
Rear_Foot 0.000000 0.000000 0.000000 0.000000 0.000000 0.000000 10.000000 
planeAlignerCenter 0.000000 0.000000 0.000000 0.000000 0.000000 0.000000 10.000000 
Rear_Toe1_01 0.000000 0.000000 0.000000 0.000000 0.000000 0.000000 10.000000 
Rear_Toe2_01 0.000000 0.000000 0.000000 0.000000 0.000000 0.000000 10.000000 
Rear_Toe3_01 0.000000 0.000000 0.000000 0.000000 0.000000 0.000000 10.000000 
planeLockWeightCenter 0.000000 0.000000 0.000000 0.000000 0.000000 0.000000 10.000000 
Rear_Toe1_02 0.000000 0.000000 0.000000 0.000000 0.000000 0.000000 10.000000 
Rear_Toe1_03 0.000000 0.000000 0.000000 0.000000 0.000000 0.000000 10.000000 
Rear_Toe2_02 0.000000 0.000000 0.000000 0.000000 0.000000 0.000000 10.000000 
Rear_Toe2_03 0.000000 0.000000 0.000000 0.000000 0.000000 0.000000 10.000000 
Rear_Toe3_02 0.000000 0.000000 0.000000 0.000000 0.000000 0.000000 10.000000 
Rear_Toe3_03 0.000000 0.000000 0.000000 0.000000 0.000000 0.000000 10.000000 
Back_Bone 0.000000 0.000000 0.000000 0.000000 0.000000 0.000000 10.000000 
Head 0.000000 0.000000 0.000000 0.000000 0.000000 0.000000 10.000000 
Motor_Bone 0.000000 0.000000 0.000000 0.000000 0.000000 0.000000 10.000000 
Ping_Mechanism 0.000000 0.000000 0.000000 0.000000 0.000000 0.000000 10.000000 
BN_LookIK 0.000000 0.000000 0.000000 0.000000 0.000000 0.000000 10.000000 
bottomMouth 0.000000 0.000000 0.000000 0.000000 0.000000 0.000000 10.000000 
L_Mouth01 0.000000 0.000000 0.000000 0.000000 0.000000 0.000000 10.000000 
L_mouthFront 0.000000 0.000000 0.000000 0.000000 0.000000 0.000000 10.000000 
mouthGun 0.000000 0.000000 0.000000 0.000000 0.000000 0.000000 10.000000 
R_Mouth01 0.000000 0.000000 0.000000 0.000000 0.000000 0.000000 10.000000 
R_mouthFront 0.000000 0.000000 0.000000 0.000000 0.000000 0.000000 10.000000 
TopMouth 0.000000 0.000000 0.000000 0.000000 0.000000 0.000000 10.000000 
weapon_bone 0.000000 0.000000 0.000000 0.000000 0.000000 0.000000 10.000000 
#Beginning of Data. Separated by tabs
#Fr	Tx	Ty	Tz	Rx	Ry	Rz	SF
[Pinger_Root]
36 2500.000000 0.000220 0.000000 -0.000075 -0.000000 -0.000020 2500.000000
37 2500.000000 0.000220 0.000000 -0.000075 -0.000000 -0.000020 2500.000000
38 2500.000000 0.000220 0.000000 -0.000075 -0.000000 -0.000020 2500.000000
[Pelvis]
36 311.473633 1235.903198 4308.805176 -99.363930 -83.443901 97.259720 4493.358887
37 331.124298 1228.662842 4333.995117 -108.073090 -81.433609 106.138290 4516.942383
38 348.577942 1218.765503 4361.441406 -111.612091 -79.555130 108.912506 4541.923340
[L_Hip]
36 5.766392 125.831482 872.656799 -178.253311 -81.787758 87.381340 881.701050
37 5.766392 125.831482 872.656799 -178.253311 -81.787712 87.381248 881.701050
38 5.766392 125.831482 872.656799 -178.253342 -81.787758 87.381340 881.701050
[R_Hip]
36 5.765438 125.836372 -872.654907 -1.746690 81.787712 87.381248 881.699829
37 5.765438 125.836372 -872.654907 -1.746713 81.787666 87.381149 881.699829
38 5.765438 125.836372 -872.654907 -1.746678 81.787712 87.381248 881.699829
[Rear_Leg01]
36 -192.298416 -925.602966 -0.001907 -169.700500 -27.905697 172.894302 945.367432
37 -192.298416 -925.602966 -0.001907 -168.335175 -29.357492 171.120041 945.367432
38 -192.298416 -925.602966 -0.001907 -168.097443 -30.184320 169.869965 945.367432
[Spine1]
36 290.604584 5.007505 0.000477 -0.754968 10.705839 23.483232 290.647736
37 290.604584 5.007505 0.000477 -0.072272 11.895350 22.160128 290.647736
38 290.604584 5.007505 0.000477 1.220146 12.264974 20.991177 290.647736
[L_Leg01]
36 761.932007 -0.002384 -0.069261 88.688217 -34.396271 -60.106758 761.932068
37 761.932007 -0.002384 -0.069261 77.839851 -35.812050 -54.984821 761.932068
38 761.932007 -0.002384 -0.069261 68.433975 -35.310909 -50.826408 761.932068
[L_Leg02]
36 1441.140503 -0.000954 -0.000715 5.617396 1.421230 -117.592018 1441.140503
37 1441.140503 -0.000954 -0.000715 6.259107 1.898792 -123.948181 1441.140503
38 1441.140503 -0.000954 -0.000715 6.614102 2.184587 -127.827621 1441.140503
[L_Leg03]
36 1686.963989 -0.000715 -0.000954 -0.101299 0.059323 137.018478 1686.963989
37 1686.963989 -0.000715 -0.000954 -0.106572 0.064049 139.089478 1686.963989
38 1686.963989 -0.000715 -0.000954 -0.112300 0.068019 140.174942 1686.963989
[L_Foot]
36 3041.570068 -30.715107 11.297464 -25.919796 10.496236 21.470501 3041.746094
37 3041.570068 -30.715107 11.297464 -17.886208 10.564436 32.812263 3041.746094
38 3041.570068 -30.715107 11.297464 -11.498988 10.090658 43.932640 3041.746094
[L_Toe1_01]
36 -188.216690 -224.732346 -21.137953 88.642273 -1.638900 -140.058090 293.899567
37 -188.216690 -224.732346 -21.137953 88.657578 -1.666601 -140.028122 293.899567
38 -188.216690 -224.732346 -21.137953 88.753761 -1.790474 -142.696411 293.899567
[L_Toe2_01]
36 200.746536 -219.926590 148.838394 -73.293610 -3.848635 -75.723190 332.896027
37 200.746536 -219.926590 148.838394 -73.404953 -3.869911 -74.956017 332.896027
38 200.746536 -219.926590 148.838394 -73.516579 -3.889699 -74.188759 332.896027
[L_Toe3_01]
36 188.832520 -219.859131 -191.078659 -111.233727 4.463524 -76.788567 347.140900
37 188.832520 -219.859131 -191.078659 -111.072166 4.369415 -75.990677 347.140900
38 188.832520 -219.859131 -191.078659 -110.911957 4.273073 -75.193199 347.140900
[planeAlignerLeft]
36 12.466736 -776.958313 -0.416075 0.000000 -89.897209 -90.094627 777.058411
37 40.667706 -770.735596 -3.415188 0.000000 -89.895325 -90.097290 771.815369
38 70.872948 -767.941345 -4.547254 0.000000 -89.888092 -90.099945 771.218262
[L_Toe1_02]
36 413.761139 0.000477 0.000000 0.001455 -17.492481 0.001455 413.761139
37 413.761139 0.000477 0.000000 0.001460 -17.014608 0.001460 413.761139
38 413.761139 0.000477 0.000000 0.001461 -16.839603 0.001461 413.761139
[L_Toe1_03]
36 464.317322 0.000358 -0.000089 -179.994217 81.259789 -179.990707 464.317322
37 464.317322 0.000358 -0.000089 -179.995316 79.767418 -179.991791 464.317322
38 464.317322 0.000358 -0.000089 -179.995621 79.239891 -179.992111 464.317322
[L_Toe2_02]
36 342.235809 -0.000477 0.000238 0.001180 -77.918106 0.001180 342.235809
37 342.235809 -0.000477 0.000238 0.001180 -77.713303 0.001180 342.235809
38 342.235809 -0.000477 0.000238 0.001181 -77.508499 0.001181 342.235809
[L_Toe2_03]
36 420.210846 -0.000715 0.000000 -179.997040 76.006752 -179.993515 420.210846
37 420.210846 -0.000715 0.000000 -179.996872 76.474335 -179.993347 420.210846
38 420.210846 -0.000715 0.000000 -179.996521 77.415535 -179.992996 420.210846
[L_Toe3_02]
36 329.270111 0.000954 0.000000 0.001177 -81.547409 0.001177 329.270111
37 329.270111 0.000954 0.000000 0.001177 -81.390854 0.001177 329.270111
38 329.270111 0.000954 0.000000 0.001177 -81.234268 0.001177 329.270111
[L_Toe3_03]
36 439.137451 -0.001907 0.000954 -179.997696 73.760963 -179.994156 439.137451
37 439.137451 -0.001907 0.000954 -179.997589 74.175217 -179.994064 439.137451
38 439.137451 -0.001907 0.000954 -179.997375 74.964622 -179.993851 439.137451
[planeLockWeightLeft]
36 0.000076 -0.000229 -0.000420 -0.011826 -0.004376 0.005620 0.000484
37 0.000095 -0.000248 -0.000372 -0.011826 -0.004376 0.005620 0.000457
38 0.000114 -0.000267 -0.000324 -0.011826 -0.004376 0.005620 0.000435
[R_Leg01]
36 761.455627 -0.001907 -0.000358 123.527924 -46.292095 52.311321 761.455688
37 761.455627 -0.001907 -0.000358 124.484665 -44.829842 55.685719 761.455688
38 761.455627 -0.001907 -0.000358 124.397064 -44.284439 58.741867 761.455688
[R_Leg02]
36 1441.140625 0.000000 -0.000238 -0.426940 -0.011610 -137.701401 1441.140625
37 1441.140625 0.000000 -0.000238 -0.411844 -0.014834 -134.683731 1441.140625
38 1441.140625 0.000000 -0.000238 -0.396939 -0.018849 -131.666107 1441.140625
[R_Leg03]
36 1686.963989 0.000954 0.001431 0.011828 -0.006092 114.029167 1686.963989
37 1686.963989 0.000954 0.001431 0.018564 -0.007807 115.618805 1686.963989
38 1686.963989 0.000954 0.001431 0.025249 -0.009708 117.208412 1686.963989
[R_Foot]
36 3041.560059 -30.531288 -11.204481 13.482456 -9.085878 60.492950 3041.734131
37 3041.560059 -30.531288 -11.204481 12.156074 -8.319933 59.818954 3041.734131
38 3041.560059 -30.531288 -11.204481 11.204828 -7.605621 58.464291 3041.734131
[planeAlignerRight]
36 -72.538994 -619.293396 -224.145950 0.000000 -89.891647 -90.071693 662.591553
37 -54.436848 -643.296082 -175.094711 0.000000 -89.889854 -90.073608 668.918030
38 -49.030846 -669.111511 -155.408157 0.000000 -89.888092 -90.075516 688.669678
[R_Toe1_01]
36 -188.383347 -224.864899 21.052242 90.694099 6.507167 -157.774170 294.101532
37 -188.383347 -224.864899 21.052242 90.710663 4.231440 -157.362335 294.101532
38 -188.383347 -224.864899 21.052242 90.814217 3.273805 -155.706390 294.101532
[R_Toe2_01]
36 200.637817 -220.002121 -148.787384 -101.998375 11.350542 -45.534317 332.857574
37 200.637817 -220.002121 -148.787384 -101.425697 8.258076 -46.674873 332.857574
38 200.637817 -220.002121 -148.787384 -101.462029 6.949353 -48.275417 332.857574
[R_Toe3_01]
36 188.606735 -220.092957 191.126343 -66.310303 -33.356781 -55.828278 347.192566
37 188.606735 -220.092957 191.126343 -63.959545 -33.292240 -59.554920 347.192566
38 188.606735 -220.092957 191.126343 -62.875736 -32.623524 -62.105598 347.192566
[planeLockWeightRight]
36 1000.000000 0.000000 -0.000314 -0.011823 -0.004379 -0.000027 1000.000000
37 1000.000000 0.000000 -0.000309 -0.011823 -0.004379 -0.000027 1000.000000
38 1000.000000 0.000000 -0.000304 -0.011823 -0.004379 -0.000027 1000.000000
[R_Toe1_02]
36 413.762085 0.000477 -0.000119 0.001384 -25.946947 0.001384 413.762085
37 413.762085 0.000477 -0.000119 0.001384 -25.931728 0.001384 413.762085
38 413.762085 0.000477 -0.000119 0.001385 -25.916502 0.001385 413.762085
[R_Toe1_03]
36 464.317810 0.000000 0.001088 0.004061 56.401817 0.004061 464.317810
37 464.317810 0.000000 0.001088 0.004429 59.266529 0.004429 464.317810
38 464.317810 0.000000 0.001088 0.004265 58.052567 0.004265 464.317810
[R_Toe2_02]
36 342.234741 -0.000954 0.000238 -0.000228 -72.716637 -0.000228 342.234741
37 342.234741 -0.000954 0.000238 0.000481 -71.633034 0.000481 342.234741
38 342.234741 -0.000954 0.000238 0.001191 -70.549744 0.001191 342.234741
[R_Toe2_03]
36 420.210846 0.000715 -0.000268 0.005539 86.810638 0.003435 420.210846
37 420.210846 0.000715 -0.000268 0.009414 83.745079 0.008010 420.210846
38 420.210846 0.000715 -0.000268 0.010509 80.681778 0.009807 420.210846
[R_Toe3_02]
36 329.270355 -0.000477 -0.000954 0.001177 -81.762833 0.001177 329.270355
37 329.270355 -0.000477 -0.000954 0.001178 -79.621361 0.001178 329.270355
38 329.270355 -0.000477 -0.000954 0.001180 -77.957687 0.001180 329.270355
[R_Toe3_03]
36 439.137939 0.000238 0.001431 -179.997910 72.921707 -179.994370 439.137939
37 439.137939 0.000238 0.001431 -179.993713 81.812950 -179.990204 439.137939
38 439.137939 0.000238 0.001431 -179.996109 86.959023 -179.993484 439.137939
[Rear_Leg02]
36 1162.777710 -0.029802 0.005960 19.184940 -12.153589 -155.701813 1162.777710
37 1162.777710 -0.029802 0.005960 18.239437 -13.243976 -151.617691 1162.777710
38 1162.777710 -0.029802 0.005960 17.332590 -14.100579 -148.079742 1162.777710
[Rear_Leg03]
36 607.192505 -0.013351 -0.073195 0.010024 -0.005973 77.935028 607.192505
37 607.192505 -0.013351 -0.073195 0.010061 -0.005912 77.238701 607.192505
38 607.192505 -0.013351 -0.073195 0.010096 -0.005851 76.542351 607.192505
[Rear_Leg04]
36 995.874512 -0.020504 -0.011921 -0.043531 -0.016424 92.814705 995.874573
37 995.874512 -0.020504 -0.011921 -0.043127 -0.017458 90.079247 995.874573
38 995.874512 -0.020504 -0.011921 -0.042766 -0.018325 87.767204 995.874573
[Rear_Foot]
36 3096.176270 -0.067472 -0.041425 -141.772018 52.434757 20.320116 3096.176270
37 3096.176270 -0.067472 -0.041425 -141.751129 52.813309 20.301319 3096.176270
38 3096.176270 -0.067472 -0.041425 -141.730255 53.191837 20.282574 3096.176270
[planeAlignerCenter]
36 7.215820 76.673065 -749.441711 0.001729 -0.001588 175.156235 753.388123
37 5.864082 79.510315 -740.122375 0.001713 -0.001605 176.291351 744.404053
38 4.512350 82.347557 -730.803101 0.001697 -0.001622 177.426346 735.441772
[Rear_Toe1_01]
36 0.653352 83.966492 -371.173737 -0.089856 24.866339 84.918518 380.553192
37 0.653352 83.966492 -371.173737 -0.045764 24.354446 86.017761 380.553192
38 0.653352 83.966492 -371.173737 -0.012587 23.841839 87.112335 380.553192
[Rear_Toe2_01]
36 178.200760 -294.826019 -362.060547 -0.231896 49.839874 -77.086571 499.765686
37 178.200760 -294.826019 -362.060547 0.108508 49.230274 -75.305847 499.765686
38 178.200760 -294.826019 -362.060547 0.415882 48.614269 -73.552734 499.765686
[Rear_Toe3_01]
36 -153.359680 -308.780914 -362.060852 -2.709137 49.858952 -120.147263 499.952881
37 -153.359680 -308.780914 -362.060852 -2.382204 49.237003 -118.460793 499.952881
38 -153.359680 -308.780914 -362.060852 -2.087206 48.609268 -116.801033 499.952881
[planeLockWeightCenter]
36 1000.000488 0.000496 -0.000080 -0.011814 -0.004373 -0.000015 1000.000488
37 1000.000488 0.000496 -0.000077 -0.011814 -0.004373 -0.000015 1000.000488
38 1000.000488 0.000496 -0.000074 -0.011814 -0.004373 -0.000015 1000.000488
[Rear_Toe1_02]
36 379.707825 0.194073 0.000477 -0.004349 -33.549995 0.003044 379.707855
37 379.707825 0.194073 0.000477 -0.004349 -33.549011 0.003044 379.707855
38 379.707825 0.194073 0.000477 -0.004349 -33.548027 0.003044 379.707855
[Rear_Toe1_03]
36 500.129700 0.165701 0.000119 -0.001688 69.274246 0.000851 500.129761
37 500.129700 0.165701 0.000119 -0.000032 69.553192 0.001999 500.129761
38 500.129700 0.165701 0.000119 0.001662 69.832138 0.003185 500.129761
[Rear_Toe2_02]
36 340.494507 0.000238 -0.000954 0.001176 -83.270256 0.001176 340.494507
37 340.494507 0.000238 -0.000954 0.001175 -83.904938 0.001175 340.494507
38 340.494507 0.000238 -0.000954 0.001175 -84.539551 0.001175 340.494507
[Rear_Toe2_03]
36 433.103577 0.000000 0.000238 179.972595 85.093246 179.972595 433.103546
37 433.103577 0.000000 0.000238 179.978653 83.695839 179.978653 433.103546
38 433.103577 0.000000 0.000238 179.982529 82.298141 179.982529 433.103546
[Rear_Toe3_02]
36 340.494141 -0.000358 -0.000477 0.001175 -83.656525 0.001175 340.494171
37 340.494141 -0.000358 -0.000477 0.001175 -84.265816 0.001175 340.494171
38 340.494141 -0.000358 -0.000477 0.001175 -84.579094 0.001175 340.494171
[Rear_Toe3_03]
36 433.103577 0.001431 -0.000238 -179.990158 84.320076 -179.986649 433.103546
37 433.103577 0.001431 -0.000238 -179.992355 82.983002 -179.988861 433.103546
38 433.103577 0.001431 -0.000238 -179.993393 82.115768 -179.989883 433.103546
[Back_Bone]
36 1312.175781 -701.934692 0.000954 -2.791076 2.926607 -88.311546 1488.125488
37 1312.175781 -701.934692 0.000954 -2.984262 3.146260 -88.322662 1488.125488
38 1312.175781 -701.934692 0.000954 -2.920933 3.159041 -87.929024 1488.125488
[Head]
36 1406.159424 809.709290 0.001431 4.100789 -13.320769 -1.138397 1622.625488
37 1406.159424 809.709290 0.001431 3.970583 -13.130660 -1.184423 1622.625488
38 1406.159424 809.709290 0.001431 3.840322 -12.940653 -1.230856 1622.625488
[Motor_Bone]
36 1158.364380 -417.834747 0.000477 5.388104 -1.720919 -107.705574 1231.419434
37 1158.364380 -417.834747 0.000477 -0.064415 0.133392 -105.853745 1231.419434
38 1158.364380 -417.834747 0.000477 -5.513572 1.191229 -104.796593 1231.419434
[Ping_Mechanism]
36 1244.434692 -446.339996 -8.137175 0.000103 -0.000053 82.120995 1322.082886
37 1253.288330 -448.098083 -17.657820 0.000103 -0.000053 82.120995 1331.103149
38 1260.988892 -450.541931 -21.584183 0.000103 -0.000053 82.120995 1339.233643
[BN_LookIK]
36 193.241119 1380.371704 -0.002861 0.000000 89.965736 -31.038179 1393.832153
37 193.241119 1380.371704 -0.002861 0.000000 89.965736 -31.038179 1393.832153
38 193.241119 1380.371704 -0.002861 0.000000 89.965736 -31.038179 1393.832153
[bottomMouth]
36 -435.092926 615.759399 -0.000954 -0.000022 0.000016 73.527184 753.966492
37 -435.092926 615.759399 -0.000954 -0.000022 0.000016 73.527184 753.966492
38 -435.092926 615.759399 -0.000954 -0.000022 0.000016 73.527184 753.966492
[L_Mouth01]
36 554.440979 7.658243 838.222046 150.204178 23.759130 109.605339 1005.027161
37 554.440979 7.658243 838.222046 150.204178 23.759130 109.605339 1005.027161
38 554.440979 7.658243 838.222046 150.204178 23.759130 109.605339 1005.027161
[L_mouthFront]
36 551.629089 934.514771 339.150421 0.000081 2.804060 79.119301 1136.941284
37 551.629089 934.514771 339.150421 0.000081 2.804060 79.119301 1136.941284
38 551.629089 934.514771 339.150421 0.000081 2.804060 79.119301 1136.941284
[mouthGun]
36 55.332661 1627.420898 0.000000 0.000023 0.000009 -11.038128 1628.361328
37 55.332661 1627.420898 0.000000 0.000023 0.000009 -11.038128 1628.361328
38 55.332661 1627.420898 0.000000 0.000023 0.000009 -11.038128 1628.361328
[R_Mouth01]
36 554.442383 7.659197 -838.223938 29.795891 -23.759109 109.605331 1005.029541
37 554.442383 7.659197 -838.223938 29.795891 -23.759109 109.605331 1005.029541
38 554.442383 7.659197 -838.223938 29.795891 -23.759109 109.605331 1005.029541
[R_mouthFront]
36 551.629089 934.514282 -339.151367 0.000029 -2.803930 79.119133 1136.941162
37 551.629089 934.514282 -339.151367 0.000029 -2.803930 79.119133 1136.941162
38 551.629089 934.514282 -339.151367 0.000029 -2.803930 79.119133 1136.941162
[TopMouth]
36 461.269867 -56.106091 -0.008583 -0.000059 -0.000268 92.025169 464.669525
37 461.269867 -56.106091 -0.008583 -0.000059 -0.000268 92.025169 464.669525
38 461.269867 -56.106091 -0.008583 -0.000059 -0.000268 92.025169 464.669525
[weapon_bone]
36 -987.239868 1448.372803 0.001431 0.000000 89.965736 -31.038221 1752.833740
37 -987.239868 1448.372803 0.001431 0.000000 89.965736 -31.038221 1752.833740
38 -987.239868 1448.372803 0.001431 0.000000 89.965736 -31.038221 1752.833740
